<svg width="27" height="27" viewBox="0 0 27 27" fill="none" xmlns="http://www.w3.org/2000/svg">
<g clip-path="url(#clip0_1581_2447)">
<path d="M22.412 25.4647L21.8358 20.8554C21.7488 20.1596 21.2701 19.5756 20.605 19.3539L18.3834 18.6134C18.0783 18.5116 17.7436 18.5764 17.5083 18.7769L16.8539 18.5587C16.4822 18.4348 16.2315 18.087 16.2315 17.6951V16.2271L18.1922 15.4101C19.2099 14.9862 19.8728 13.9918 19.8728 12.8892V12.4341C20.627 12.4341 21.2383 11.8227 21.2383 11.0686C21.2383 10.7284 21.1136 10.4175 20.9079 10.1784C21.2942 8.77204 22.3802 4.32342 21.2383 2.4203L21.6935 0.599609C21.6935 0.599609 16.9142 0.713402 14.4107 1.50995L15.3211 0.599609C15.3211 0.599609 8.92023 0.599609 7.58356 2.87507L7.58316 2.87547C7.58316 2.87547 5.30731 2.85652 5.30731 5.60649C5.30731 6.61299 5.8687 9.12622 6.10972 10.1591C5.89391 10.4005 5.76248 10.7192 5.76248 11.0686C5.76248 11.8227 6.37383 12.4341 7.12799 12.4341V12.8892C7.12799 13.9917 7.79089 14.9861 8.8086 15.4102L10.7694 16.2272V17.6952C10.7694 18.087 10.5186 18.4349 10.1469 18.5588L9.4925 18.7769C9.25723 18.5765 8.92256 18.5117 8.61749 18.6134L6.39585 19.354C5.73067 19.5757 5.25195 20.1597 5.16501 20.8554L4.58888 25.4647C4.48697 26.2797 5.12245 26.9996 5.94381 26.9996H5.95661H21.0442H21.057C21.8783 26.9996 22.5139 26.2797 22.412 25.4647Z" fill="#FFD7A3"/>
<path d="M16.2312 16.2275L10.7691 16.2276V17.6956C10.7691 18.0232 10.5879 18.3118 10.313 18.4727C14.1304 19.1409 16.2312 16.2275 16.2312 16.2275Z" fill="#FDC88E"/>
<path d="M6.21747 10.6134C6.21747 10.6134 5.30713 6.88814 5.30713 5.6065C5.30713 2.85652 7.58299 2.87547 7.58299 2.87547L7.58338 2.87507C8.92005 0.599609 15.3209 0.599609 15.3209 0.599609L14.4106 1.50995C16.914 0.713402 21.6933 0.599609 21.6933 0.599609L21.2381 2.4203C22.6036 4.69615 20.783 10.6134 20.783 10.6134H6.21747Z" fill="#734A3E"/>
<path d="M15.3209 0.599609C15.3209 0.599609 8.92005 0.599609 7.58338 2.87507L7.58299 2.87547C7.58299 2.87547 5.30713 2.85652 5.30713 5.6065C5.30713 6.88814 6.21747 10.6134 6.21747 10.6134C6.21747 10.6134 15.6813 6.3841 21.6933 0.599609C21.6933 0.599609 16.914 0.713402 14.4106 1.50995L15.3209 0.599609Z" fill="#623F33"/>
<path d="M19.8725 9.7028V8.79246C19.8725 7.53556 18.8536 6.5166 17.5967 6.5166H9.40358C8.14668 6.5166 7.12772 7.53556 7.12772 8.79246V9.7028C6.37356 9.7028 5.76221 10.3142 5.76221 11.0683C5.76221 11.8225 6.37356 12.4338 7.12772 12.4338V12.889C7.12772 13.9915 7.79062 14.9859 8.80833 15.41L11.7494 16.6354C12.3041 16.8666 12.8991 16.9855 13.5001 16.9855C14.101 16.9855 14.696 16.8665 15.2507 16.6354L18.1919 15.4099C19.2096 14.9859 19.8725 13.9915 19.8725 12.889V12.4338C20.6267 12.4338 21.238 11.8225 21.238 11.0683C21.238 10.3142 20.6267 9.7028 19.8725 9.7028Z" fill="#FFE1B2"/>
<path d="M10.3145 11.5237C10.0642 11.5237 9.85938 11.3189 9.85938 11.0685V10.6134C9.85938 10.363 10.0642 10.1582 10.3145 10.1582C10.5649 10.1582 10.7697 10.363 10.7697 10.6134V11.0685C10.7697 11.3189 10.5649 11.5237 10.3145 11.5237Z" fill="#623F33"/>
<path d="M16.6866 11.5237C16.4363 11.5237 16.2314 11.3189 16.2314 11.0685V10.6134C16.2314 10.363 16.4363 10.1582 16.6866 10.1582C16.937 10.1582 17.1418 10.363 17.1418 10.6134V11.0685C17.1418 11.3189 16.937 11.5237 16.6866 11.5237Z" fill="#623F33"/>
<path d="M13.5 14.7218C12.6908 14.7218 11.9339 14.5227 11.4233 14.1753C11.2155 14.034 11.1615 13.7508 11.3031 13.543C11.4442 13.3355 11.7276 13.2814 11.9354 13.4228C12.2932 13.6662 12.8782 13.8115 13.5 13.8115C14.1219 13.8115 14.7069 13.6662 15.0647 13.4228C15.2729 13.281 15.5557 13.3352 15.697 13.543C15.8385 13.7508 15.7846 14.034 15.5768 14.1753C15.0663 14.5227 14.3093 14.7218 13.5 14.7218Z" fill="#E4B07B"/>
<path d="M5.54445 19.9541C5.34236 20.21 5.20706 20.5191 5.16501 20.8555L4.58888 25.4648C4.48697 26.2798 5.12251 26.9997 5.94386 26.9997H8.49351V24.0373C8.49351 23.5993 8.33568 23.1761 8.04898 22.8451L5.54445 19.9541Z" fill="#00AB9A"/>
<path d="M21.4564 19.9541C21.6585 20.21 21.7938 20.5191 21.8358 20.8555L22.412 25.4648C22.5139 26.2798 21.8783 26.9997 21.057 26.9997H18.5073V24.0373C18.5073 23.5993 18.6652 23.1761 18.9519 22.8451L21.4564 19.9541Z" fill="#00AB9A"/>
<path d="M9.51714 14.4663C9.14834 14.0709 8.94846 13.5491 8.94846 13.0084V7.85014C10.3972 7.74152 14.9649 7.34649 17.5967 6.5166H9.40358C9.24689 6.5166 9.09514 6.53487 8.94841 6.56673V6.56246C7.90965 6.77338 7.12772 7.69146 7.12772 8.79246V9.7028C6.37356 9.7028 5.76221 10.3142 5.76221 11.0683C5.76221 11.8225 6.37356 12.4338 7.12772 12.4338V12.889C7.12772 13.9915 7.79062 14.9859 8.80833 15.41L11.7493 16.6354C11.8933 16.6954 12.0402 16.747 12.1889 16.7918C10.8892 15.841 10.024 15.0098 9.51714 14.4663Z" fill="#FFD7A3"/>
</g>
<defs>
<clipPath id="clip0_1581_2447">
<rect x="0.300781" y="0.599609" width="26.4" height="26.4" rx="13.2" fill="white"/>
</clipPath>
</defs>
</svg>
